<?xml version="1.0" encoding="UTF-8"?>
<svg id="a" data-name="レイヤー 1" xmlns="http://www.w3.org/2000/svg" viewBox="0 0 256 256">
  <g>
    <circle cx="128" cy="128" r="126.5" style="fill: #fff;"/>
    <path d="m128,3c33.39,0,64.78,13,88.39,36.61,23.61,23.61,36.61,55,36.61,88.39s-13,64.78-36.61,88.39c-23.61,23.61-55,36.61-88.39,36.61s-64.78-13-88.39-36.61C16,192.78,3,161.39,3,128S16,63.22,39.61,39.61C63.22,16,94.61,3,128,3m0-3C57.31,0,0,57.31,0,128s57.31,128,128,128,128-57.31,128-128S198.69,0,128,0h0Z" style="fill: #999;"/>
  </g>
  <polygon points="199.56 127.99 93 63 93 192.99 199.56 127.99" style="fill: #999;"/>
</svg>